<svg fill="#000000" xmlns="http://www.w3.org/2000/svg"  viewBox="0 0 50 50" width="50px" height="50px"><path d="M 13 5 C 11.895 5 11 5.895 11 7 C 11 8.105 11.895 9 13 9 L 15 9 C 16.105 9 17 8.105 17 7 C 17 5.895 16.105 5 15 5 L 13 5 z M 21 5 C 19.906955 5 19 5.9057295 19 7 C 19 8.0942705 19.906955 9 21 9 L 22.830078 9 C 23.954899 9 24.942898 9.8375994 24.998047 10.890625 C 25.059087 12.063948 24.152105 13 23 13 L 14 13 C 12.906955 13 12 13.905729 12 15 C 12 16.094271 12.906955 17 14 17 L 15.830078 17 C 16.954899 17 17.942898 17.837599 17.998047 18.890625 C 18.059087 20.063948 17.152105 21 16 21 L 14 21 C 12.906955 21 12 21.905729 12 23 C 12 24.094271 12.906955 25 14 25 L 15.830078 25 C 16.954899 25 17.942898 25.837599 17.998047 26.890625 C 18.059087 28.063948 17.152105 29 16 29 L 14 29 C 12.906955 29 12 29.905729 12 31 C 12 32.094271 12.906955 33 14 33 L 20.830078 33 C 21.954899 33 22.942898 33.837599 22.998047 34.890625 C 23.059087 36.063948 22.152105 37 21 37 L 18 37 C 16.906955 37 16 37.905729 16 39 C 16 40.094271 16.906955 41 18 41 L 27.5 41 C 28.340812 41 29 41.659188 29 42.5 L 29 43.5 L 29.417969 43.5 C 29.826036 44.332692 30.519131 45 31.5 45 C 32.199749 45 32.879168 44.778546 33.445312 44.371094 L 33.445312 44.373047 C 38.16044 40.985223 42.541213 37.793087 45.642578 34.091797 C 48.743944 30.390507 50.534182 26.087165 49.859375 20.839844 C 48.682569 11.692277 40.636124 5 31.443359 5 L 21 5 z M 22.830078 7 L 31.443359 7 C 39.666594 7 46.831759 12.971223 47.876953 21.095703 C 48.479147 25.778382 46.97501 29.386681 44.109375 32.806641 C 41.24374 36.2266 36.98517 39.366871 32.279297 42.748047 L 32.277344 42.748047 C 32.051535 42.910594 31.776251 43 31.5 43 C 31.213063 43 31 42.786937 31 42.5 C 31 40.578812 29.421188 39 27.5 39 L 21 39 C 23.267895 39 25.113101 37.073786 24.994141 34.787109 C 24.87929 32.594135 22.953257 31 20.830078 31 L 16 31 C 18.267895 31 20.113101 29.073786 19.994141 26.787109 C 19.87929 24.594135 17.953257 23 15.830078 23 L 16 23 C 18.267895 23 20.113101 21.073786 19.994141 18.787109 C 19.87929 16.594135 17.953257 15 15.830078 15 L 23 15 C 25.267895 15 27.113101 13.073786 26.994141 10.787109 C 26.87929 8.5941354 24.953257 7 22.830078 7 z M 6 13 C 4.895 13 4 13.895 4 15 C 4 16.105 4.895 17 6 17 L 8 17 C 9.105 17 10 16.105 10 15 C 10 13.895 9.105 13 8 13 L 6 13 z M 29 16 C 27.906937 16 27 16.906937 27 18 L 27 28 C 27 29.093063 27.906937 30 29 30 L 33 30 C 36.71951 30 39.714334 27.049648 39.923828 23.380859 A 1.0001 1.0001 0 0 0 40 23 C 40 19.145666 36.854334 16 33 16 L 29 16 z M 29 18 L 33 18 C 35.773666 18 38 20.226334 38 23 C 38 25.773666 35.773666 28 33 28 L 29 28 L 29 18 z M 2 21 C 0.895 21 0 21.895 0 23 C 0 24.105 0.895 25 2 25 L 8 25 C 9.105 25 10 24.105 10 23 C 10 21.895 9.105 21 8 21 L 2 21 z M 6 29 C 4.895 29 4 29.895 4 31 C 4 32.105 4.895 33 6 33 L 8 33 C 9.105 33 10 32.105 10 31 C 10 29.895 9.105 29 8 29 L 6 29 z"/></svg>